<?xml version="1.0" encoding="utf-8"?>
<!-- Generator: Adobe Illustrator 24.0.0, SVG Export Plug-In . SVG Version: 6.00 Build 0)  -->
<svg version="1.1" id="Capa_1" xmlns="http://www.w3.org/2000/svg" xmlns:xlink="http://www.w3.org/1999/xlink" x="0px" y="0px"
	 viewBox="0 0 316.3 231.9" style="enable-background:new 0 0 316.3 231.9;" xml:space="preserve">
<style type="text/css">
	.st0{fill-rule:evenodd;clip-rule:evenodd;fill:#FFFFFF;}
	.st1{fill:none;stroke:#000000;stroke-width:0.75;stroke-linecap:round;stroke-linejoin:round;}
	.st2{fill:none;stroke:#000000;stroke-width:0.75;stroke-linecap:round;stroke-linejoin:round;stroke-dasharray:0,1.5;}
	.st3{font-family:'TimesNewRomanPS-BoldMT';}
	.st4{font-size:17.5362px;}
	.st5{font-size:26.1734px;}
	.st6{fill:none;stroke:#000000;stroke-width:1.5;stroke-linejoin:round;}
	.st7{fill:none;stroke:#E91300;stroke-miterlimit:10;}
	.st8{font-family:'TimesNewRomanPSMT';}
	.st9{font-size:22.6049px;}
	.st10{font-size:12.749px;}
</style>
<title>camino2</title>
<polygon class="st0" points="24.1,187.1 39.8,30.1 275.3,14.4 "/>
<polygon class="st1" points="24.1,187.1 39.8,30.1 275.3,14.4 "/>
<polygon class="st0" points="39.8,187.1 291,14.4 275.3,202.8 "/>
<polygon class="st1" points="39.8,187.1 291,14.4 275.3,202.8 "/>
<line class="st2" x1="275.3" y1="202.8" x2="39.8" y2="30.1"/>
<text transform="matrix(1 0 0 1 0 47.4874)" class="st3 st4">   </text>
<text transform="matrix(1 0 0 1 21.9863 26.8107)" class="st3 st5">A</text>
<text transform="matrix(1 0 0 1 231.7002 47.4874)" class="st3 st4">   </text>
<text transform="matrix(1 0 0 1 244.9619 47.4874)" class="st3 st4"> </text>
<text transform="matrix(1 0 0 1 249.1709 47.4874)" class="st3 st4">  </text>
<text transform="matrix(1 0 0 1 258.0049 47.4874)" class="st3 st4"> </text>
<text transform="matrix(1 0 0 1 262.2148 47.4874)" class="st3 st4">  </text>
<text transform="matrix(1 0 0 1 271.0479 47.4874)" class="st3 st4"> </text>
<text transform="matrix(1 0 0 1 275.2354 47.4874)" class="st3 st4">  </text>
<text transform="matrix(1 0 0 1 15.4395 211.629)" class="st3 st5">D</text>
<text transform="matrix(1 0 0 1 0 77.587)" class="st3 st4">   </text>
<text transform="matrix(1 0 0 1 13.2617 77.587)" class="st3 st4"> </text>
<text transform="matrix(1 0 0 1 17.4707 77.587)" class="st3 st4">  </text>
<text transform="matrix(1 0 0 1 26.3047 77.587)" class="st3 st4"> </text>
<text transform="matrix(1 0 0 1 30.4922 77.587)" class="st3 st4">  </text>
<text transform="matrix(1 0 0 1 60.71 41.587)" class="st3 st4">1</text>
<text transform="matrix(1 0 0 1 80.5654 45.587)" class="st3 st4"> </text>
<text transform="matrix(1 0 0 1 84.7744 45.587)" class="st3 st4">  </text>
<text transform="matrix(1 0 0 1 41.7549 50.8702)" class="st3 st4">8</text>
<text transform="matrix(1 0 0 1 154.4893 77.587)" class="st3 st4">   </text>
<text transform="matrix(1 0 0 1 167.75 77.587)" class="st3 st4"> </text>
<text transform="matrix(1 0 0 1 171.96 77.587)" class="st3 st4">  </text>
<text transform="matrix(1 0 0 1 180.793 77.587)" class="st3 st4"> </text>
<text transform="matrix(1 0 0 1 185.0029 77.587)" class="st3 st4">  </text>
<text transform="matrix(1 0 0 1 193.8359 77.587)" class="st3 st4"> </text>
<text transform="matrix(1 0 0 1 198.0244 77.587)" class="st3 st4">  </text>
<text transform="matrix(1 0 0 1 206.8799 77.587)" class="st3 st4"> </text>
<text transform="matrix(1 0 0 1 211.0889 77.587)" class="st3 st4">  </text>
<text transform="matrix(1 0 0 1 80.9941 181.2726)" class="st3 st4">6</text>
<text transform="matrix(1 0 0 1 231.7002 107.6866)" class="st3 st4">   </text>
<text transform="matrix(1 0 0 1 29.7881 173.8907)" class="st3 st4">7</text>
<text transform="matrix(1 0 0 1 77.2119 108.3839)" class="st3 st5">T</text>
<text transform="matrix(1 0 0 1 94.748 115.9747)" class="st3 st4">3</text>
<text transform="matrix(1 0 0 1 154.4893 137.7863)" class="st3 st4">   </text>
<text transform="matrix(1 0 0 1 167.75 137.7863)" class="st3 st4"> </text>
<text transform="matrix(1 0 0 1 171.96 137.7863)" class="st3 st4">  </text>
<text transform="matrix(1 0 0 1 154.4893 167.8859)" class="st3 st4">   </text>
<text transform="matrix(1 0 0 1 206.0254 116.838)" class="st3 st5">T</text>
<text transform="matrix(1 0 0 1 223.5615 117.8859)" class="st3 st4">4</text>
<text transform="matrix(1 0 0 1 0 197.9845)" class="st3 st4">   </text>
<text transform="matrix(1 0 0 1 13.2617 197.9845)" class="st3 st4"> </text>
<text transform="matrix(1 0 0 1 17.4707 197.9845)" class="st3 st4">  </text>
<text transform="matrix(1 0 0 1 217.2539 35.087)" class="st3 st4">2</text>
<text transform="matrix(1 0 0 1 0 228.1495)" class="st3 st4">   </text>
<text transform="matrix(1 0 0 1 13.2617 228.1495)" class="st3 st4"> </text>
<text transform="matrix(1 0 0 1 17.4707 228.1495)" class="st3 st4">  </text>
<text transform="matrix(1 0 0 1 26.3047 228.1495)" class="st3 st4"> </text>
<text transform="matrix(1 0 0 1 30.4922 228.1495)" class="st3 st4">  </text>
<text transform="matrix(1 0 0 1 39.3262 228.1495)" class="st3 st4"> </text>
<text transform="matrix(1 0 0 1 43.5352 228.1495)" class="st3 st4">  </text>
<text transform="matrix(1 0 0 1 52.3906 228.1495)" class="st3 st4"> </text>
<text transform="matrix(1 0 0 1 56.5781 228.1495)" class="st3 st4">  </text>
<text transform="matrix(1 0 0 1 277.4268 39.5021)" class="st3 st4">3</text>
<text transform="matrix(1 0 0 1 264.6133 186.8898)" class="st3 st4">4</text>
<text transform="matrix(1 0 0 1 266.4688 176.8898)" class="st3 st4"> </text>
<text transform="matrix(1 0 0 1 275.1064 176.8898)" class="st3 st4">  </text>
<text transform="matrix(1 0 0 1 239.9609 196.9591)" class="st3 st4">5</text>
<text transform="matrix(1 0 0 1 0 227.713)" class="st3 st4">  </text>
<text transform="matrix(1 0 0 1 296.3486 23.7609)" class="st3 st5">B</text>
<text transform="matrix(1 0 0 1 231.7002 227.713)" class="st3 st4">   </text>
<text transform="matrix(1 0 0 1 244.9619 227.713)" class="st3 st4"> </text>
<text transform="matrix(1 0 0 1 249.1709 227.713)" class="st3 st4">  </text>
<text transform="matrix(1 0 0 1 258.0049 227.713)" class="st3 st4"> </text>
<text transform="matrix(1 0 0 1 262.2148 227.713)" class="st3 st4">  </text>
<text transform="matrix(1 0 0 1 275.7158 226.6661)" class="st3 st5">C</text>
<line class="st6" x1="39.8" y1="30.1" x2="24.1" y2="187.1"/>
<g>
	<path class="st7" d="M161.8,65.1"/>
	<path class="st7" d="M141.3,108.3"/>
	<path class="st7" d="M193.6,21.8"/>
	<path class="st7" d="M161.8,65.1"/>
	<path class="st7" d="M141.3,108.3"/>
	<path class="st7" d="M141.1,107.5"/>
</g>
<g>
	<path class="st7" d="M131.1,112.3c0-12.6-1.5-45.8,19.5-45.8"/>
	<path class="st7" d="M150.5,66.5c15.7,0,30.2-7.8,30.2-45.8"/>
	<line class="st7" x1="138.5" y1="103.5" x2="131.1" y2="112.3"/>
	<line class="st7" x1="130.9" y1="111.5" x2="127" y2="103.4"/>
</g>
<g>
	<path class="st7" d="M141.3,193.3c0-13.8-1-50.3,14-50.3"/>
	<path class="st7" d="M155.3,143c11.3,0,21.7-8.5,21.7-50.3"/>
	<line class="st7" x1="146.7" y1="183.6" x2="141.3" y2="193.3"/>
	<line class="st7" x1="141.2" y1="192.4" x2="138.4" y2="183.5"/>
</g>
<g>
	<text transform="matrix(1.2678 0 0 1 34.9984 156.1478)" class="st8 st9">δ</text>
	<text transform="matrix(1.0869 0 0 1 48.598 157.3158)" class="st8 st10">α1</text>
</g>
<g>
	<text transform="matrix(1.2674 3.259225e-02 -2.570835e-02 0.9997 55.8234 62.581)" class="st8 st9">δ</text>
	<text transform="matrix(1.0865 2.794264e-02 -2.570835e-02 0.9997 69.3885 64.0982)" class="st8 st10">β1</text>
</g>
<g>
	<text transform="matrix(1.2678 0 0 1 217.9712 172.9401)" class="st8 st9">δ</text>
	<text transform="matrix(1.0869 0 0 1 231.5708 174.108)" class="st8 st10">α2</text>
</g>
<g>
	<text transform="matrix(1.2674 3.259225e-02 -2.570835e-02 0.9997 254.0491 59.5568)" class="st8 st9">δ</text>
	<text transform="matrix(1.0865 2.794264e-02 -2.570835e-02 0.9997 267.6142 61.074)" class="st8 st10">β2</text>
</g>
</svg>
