<?xml version="1.0" encoding="utf-8"?>
<!-- Generator: Adobe Illustrator 24.0.0, SVG Export Plug-In . SVG Version: 6.00 Build 0)  -->
<svg version="1.1" id="Capa_1" xmlns="http://www.w3.org/2000/svg" xmlns:xlink="http://www.w3.org/1999/xlink" x="0px" y="0px"
	 viewBox="0 0 316.3 231.5" style="enable-background:new 0 0 316.3 231.5;" xml:space="preserve">
<style type="text/css">
	.st0{fill-rule:evenodd;clip-rule:evenodd;fill:#FFFFFF;}
	.st1{fill:none;stroke:#000000;stroke-width:0.75;stroke-linecap:round;stroke-linejoin:round;}
	.st2{fill:none;stroke:#000000;stroke-width:0.75;stroke-linecap:round;stroke-linejoin:round;stroke-dasharray:0,1.5;}
	.st3{font-family:'TimesNewRomanPS-BoldMT';}
	.st4{font-size:17.6824px;}
	.st5{font-size:26.3916px;}
	.st6{fill:none;stroke:#000000;stroke-width:1.5;stroke-linejoin:round;}
	.st7{fill:none;stroke:#E91300;stroke-miterlimit:10;}
	.st8{font-family:'TimesNewRomanPSMT';}
	.st9{font-size:22.6049px;}
	.st10{font-size:12.749px;}
</style>
<title>camino1</title>
<polygon class="st0" points="35.1,34 19.2,176.5 256.8,192.4 "/>
<polygon class="st1" points="35.1,34 19.2,176.5 256.8,192.4 "/>
<polygon class="st0" points="50.9,34 272.6,192.4 288.4,18.2 "/>
<path class="st1" d="M50.9,34c30.3,21.6,60.5,43.3,90.8,64.9c43.6,31.2,87.3,62.3,130.9,93.5c5.3-58.1,10.5-116.1,15.8-174.2
	c-40.8,2.7-81.6,5.4-122.4,8.1C127.6,28.9,89.3,31.4,50.9,34z"/>
<line class="st2" x1="288.4" y1="18.2" x2="19.2" y2="176.5"/>
<text transform="matrix(1 0 0 1 1.4639 51.5787)" class="st3 st4">   </text>
<text transform="matrix(1 0 0 1 10.6133 37.3278)" class="st3 st5">A</text>
<text transform="matrix(1 0 0 1 235.0947 51.5787)" class="st3 st4">   </text>
<text transform="matrix(1 0 0 1 248.4668 51.5787)" class="st3 st4"> </text>
<text transform="matrix(1 0 0 1 252.7109 51.5787)" class="st3 st4">  </text>
<text transform="matrix(1 0 0 1 261.6191 51.5787)" class="st3 st4"> </text>
<text transform="matrix(1 0 0 1 265.8408 51.5787)" class="st3 st4">  </text>
<text transform="matrix(1 0 0 1 6.541 203.9332)" class="st3 st5">D</text>
<text transform="matrix(1 0 0 1 36.7139 56.1393)" class="st3 st4">8</text>
<text transform="matrix(1 0 0 1 23.8965 164.3746)" class="st3 st4">7</text>
<text transform="matrix(1 0 0 1 40.6631 175.3668)" class="st3 st4">6</text>
<text transform="matrix(1 0 0 1 83.251 49.7252)" class="st3 st4">1</text>
<text transform="matrix(1 0 0 1 126.1738 153.2242)" class="st3 st5">T</text>
<text transform="matrix(1 0 0 1 143.9219 154.2809)" class="st3 st4">2</text>
<text transform="matrix(1 0 0 1 212.8057 101.5753)" class="st3 st5">T</text>
<text transform="matrix(1 0 0 1 230.4883 101.63)" class="st3 st4">1</text>
<text transform="matrix(1 0 0 1 248.3418 34.1866)" class="st3 st4">2</text>
<text transform="matrix(1 0 0 1 274.7334 42.5402)" class="st3 st4">3</text>
<text transform="matrix(1 0 0 1 157.1738 203.3312)" class="st3 st4">  </text>
<text transform="matrix(1 0 0 1 235.0947 203.3312)" class="st3 st4">   </text>
<text transform="matrix(1 0 0 1 202.7773 179.7433)" class="st3 st4">5</text>
<text transform="matrix(1 0 0 1 293.751 18.4991)" class="st3 st5">B</text>
<text transform="matrix(1 0 0 1 161.7266 223.9171)" class="st3 st4">  </text>
<text transform="matrix(1 0 0 1 170.6338 223.9171)" class="st3 st4"> </text>
<text transform="matrix(1 0 0 1 174.8779 223.9171)" class="st3 st4">  </text>
<text transform="matrix(1 0 0 1 183.7852 223.9171)" class="st3 st4"> </text>
<text transform="matrix(1 0 0 1 201.2031 223.9171)" class="st3 st4">  </text>
<text transform="matrix(1 0 0 1 261.6016 181.13)" class="st3 st4">4</text>
<text transform="matrix(1 0 0 1 235.0947 264.0968)" class="st3 st4">  </text>
<text transform="matrix(1 0 0 1 263.9492 223.4542)" class="st3 st5">C</text>
<line class="st6" x1="35.1" y1="34" x2="19.2" y2="176.5"/>
<g>
	<path class="st7" d="M157.2,110c0-11.9-1.5-43.3,20.5-43.3"/>
	<path class="st7" d="M177.7,66.7c16.5,0,31.8-7.3,31.8-43.3"/>
	<line class="st7" x1="165" y1="101.6" x2="157.2" y2="110"/>
	<line class="st7" x1="157" y1="109.2" x2="152.9" y2="101.6"/>
</g>
<g>
	<path class="st7" d="M74.7,179.7c0-11.4-1.4-41.6,19-41.6"/>
	<path class="st7" d="M93.7,138.2c15.3,0,29.5-7,29.5-41.6"/>
	<line class="st7" x1="82" y1="171.7" x2="74.7" y2="179.7"/>
	<line class="st7" x1="74.6" y1="179" x2="70.7" y2="171.7"/>
</g>
<g>
	<text transform="matrix(1.2678 0 0 1 238.4004 161.4855)" class="st8 st9">δ</text>
	<text transform="matrix(1.0869 0 0 1 252 162.6534)" class="st8 st10">α1</text>
</g>
<g>
	<text transform="matrix(1.2674 3.259225e-02 -2.570835e-02 0.9997 231.2254 53.9186)" class="st8 st9">δ</text>
	<text transform="matrix(1.0865 2.794264e-02 -2.570835e-02 0.9997 244.7905 55.4358)" class="st8 st10">β1</text>
</g>
<g>
	<text transform="matrix(1.2678 0 0 1 44.3731 154.2777)" class="st8 st9">δ</text>
	<text transform="matrix(1.0869 0 0 1 57.9727 155.4456)" class="st8 st10">α2</text>
</g>
<g>
	<text transform="matrix(1.2674 3.259225e-02 -2.570835e-02 0.9997 38.4511 77.8944)" class="st8 st9">δ</text>
	<text transform="matrix(1.0865 2.794264e-02 -2.570835e-02 0.9997 52.0162 79.4116)" class="st8 st10">β2</text>
</g>
</svg>
