<?xml version="1.0" encoding="utf-8"?>
<!-- Generator: Adobe Illustrator 24.0.0, SVG Export Plug-In . SVG Version: 6.00 Build 0)  -->
<svg version="1.1" id="Capa_1" xmlns="http://www.w3.org/2000/svg" xmlns:xlink="http://www.w3.org/1999/xlink" x="0px" y="0px"
	 viewBox="0 0 362.6 194" style="enable-background:new 0 0 362.6 194;" xml:space="preserve">
<style type="text/css">
	.st0{fill-rule:evenodd;clip-rule:evenodd;fill:#FFFFFF;}
	.st1{fill:none;stroke:#000000;stroke-width:0.75;stroke-linecap:round;stroke-linejoin:round;}
	.st2{fill:none;stroke:#000000;stroke-width:0.75;stroke-linecap:round;stroke-linejoin:round;stroke-dasharray:0,1.5;}
	.st3{font-family:'TimesNewRomanPS-BoldMT';}
	.st4{font-size:20.5934px;}
	.st5{font-size:13.7976px;}
	.st6{font-size:12.4375px;}
	.st7{font-size:13.2558px;}
	.st8{font-size:19.7847px;}
	.st9{fill:none;stroke:#E91300;stroke-miterlimit:10;}
	.st10{font-family:'TimesNewRomanPSMT';}
	.st11{font-size:22.6049px;}
	.st12{font-size:12.749px;}
</style>
<title>camino4</title>
<polygon class="st0" points="232.9,170.2 355.2,154.9 345,17.2 "/>
<polygon class="st1" points="232.9,170.2 355.2,154.9 345,17.2 "/>
<line class="st2" x1="355.2" y1="154.8" x2="304.3" y2="93.6"/>
<text transform="matrix(1 0 0 1 347.7254 22.2915)" class="st3 st4">B</text>
<text transform="matrix(1 0 0 1 286.9412 46.7979)" class="st3 st5">   </text>
<text transform="matrix(1 0 0 1 297.3748 46.7979)" class="st3 st5"> </text>
<text transform="matrix(1 0 0 1 300.6873 46.7979)" class="st3 st5">  </text>
<text transform="matrix(1 0 0 1 307.6366 46.7979)" class="st3 st5"> </text>
<text transform="matrix(1 0 0 1 310.9491 46.7979)" class="st3 st5">  </text>
<text transform="matrix(1 0 0 1 317.8992 46.7979)" class="st3 st5"> </text>
<text transform="matrix(1 0 0 1 321.1942 46.7979)" class="st3 st5">  </text>
<text transform="matrix(1 0 0 1 331.6629 46.7979)" class="st3 st5">3</text>
<text transform="matrix(1 0 0 1 286.9412 117.0214)" class="st3 st4">T</text>
<text transform="matrix(1 0 0 1 300.7381 117.8452)" class="st3 st5">8</text>
<text transform="matrix(1 0 0 1 286.9412 141.5625)" class="st3 st5">   </text>
<text transform="matrix(1 0 0 1 297.3748 141.5625)" class="st3 st5"> </text>
<text transform="matrix(1 0 0 1 300.6873 141.5625)" class="st3 st5">  </text>
<text transform="matrix(1 0 0 1 307.6366 141.5625)" class="st3 st5"> </text>
<text transform="matrix(1 0 0 1 310.9491 141.5625)" class="st3 st5">  </text>
<text transform="matrix(1 0 0 1 324.867 141.5625)" class="st3 st5">5</text>
<text transform="matrix(1 0 0 1 331.6629 141.5625)" class="st3 st5">  </text>
<text transform="matrix(1 0 0 1 341.9588 133.9424)" class="st3 st5">4</text>
<text transform="matrix(1 0 0 1 40.3477 168.4736)" class="st3 st6">   </text>
<text transform="matrix(1 0 0 1 49.7534 168.4736)" class="st3 st6"> </text>
<text transform="matrix(1 0 0 1 43.3335 189.8213)" class="st3 st6">  </text>
<text transform="matrix(1 0 0 1 233.1912 188.1035)" class="st3 st4">D</text>
<text transform="matrix(1 0 0 1 347.7254 175.1035)" class="st3 st4">C</text>
<text transform="matrix(1 0 0 1 243.4462 165.563)" class="st3 st5">6</text>
<polygon class="st0" points="19.6,49.5 185.8,168.2 197.6,37.6 "/>
<path class="st1" d="M19.6,49.5c22.7,16.2,45.3,32.5,68,48.6c32.7,23.4,65.4,46.7,98.1,70.1c4-43.6,7.9-87,11.8-130.6
	c-30.6,2-61.2,4-91.8,6.1C77.1,45.7,48.3,47.5,19.6,49.5z"/>
<text transform="matrix(1 0 0 1 157.6431 62.6694)" class="st3 st7">   </text>
<text transform="matrix(1 0 0 1 167.668 62.6694)" class="st3 st7"> </text>
<text transform="matrix(1 0 0 1 170.8486 62.6694)" class="st3 st7">  </text>
<text transform="matrix(1 0 0 1 177.5273 62.6694)" class="st3 st7"> </text>
<text transform="matrix(1 0 0 1 180.6929 62.6694)" class="st3 st7">  </text>
<text transform="matrix(1 0 0 1 37.812 59.2793)" class="st3 st7">1</text>
<text transform="matrix(1 0 0 1 107.9492 100.1499)" class="st3 st8">T</text>
<text transform="matrix(1 0 0 1 121.2051 100.1914)" class="st3 st7">7</text>
<text transform="matrix(1 0 0 1 158.5786 52.6299)" class="st3 st7">2</text>
<text transform="matrix(1 0 0 1 182.8599 61.1411)" class="st3 st7">3</text>
<text transform="matrix(1 0 0 1 99.2285 176.4316)" class="st3 st7">  </text>
<text transform="matrix(1 0 0 1 157.6431 176.4316)" class="st3 st7">   </text>
<text transform="matrix(1 0 0 1 201.6157 37.8706)" class="st3 st8">B</text>
<text transform="matrix(1 0 0 1 112.5015 191.8643)" class="st3 st7">  </text>
<text transform="matrix(1 0 0 1 132.2368 191.8643)" class="st3 st7">  </text>
<text transform="matrix(1 0 0 1 175.5176 155.5449)" class="st3 st7">4</text>
<text transform="matrix(1 0 0 1 179.2744 191.5176)" class="st3 st8">C</text>
<g>
	<path class="st9" d="M190.9,100.1c-6.5-13.2-22.8-49.3-37.8-32.1"/>
	<path class="st9" d="M153.1,68.1c-11.3,12.9-25.7,16.8-45.5-23.2"/>
	<line class="st9" x1="181" y1="97" x2="190.9" y2="100.1"/>
	<line class="st9" x1="190.6" y1="99.1" x2="189.2" y2="87.4"/>
</g>
<text transform="matrix(1 0 0 1 8.2998 42.7271)" class="st3 st8">A</text>
<line class="st2" x1="121.2" y1="110.5" x2="196.9" y2="38.8"/>
<g>
	<path class="st9" d="M301.2,162.1c0-13.7-1.4-49.7,18.2-49.7"/>
	<path class="st9" d="M319.4,112.4c14.7,0,28.3-8.4,28.3-49.7"/>
	<line class="st9" x1="308.2" y1="152.6" x2="301.2" y2="162.1"/>
	<line class="st9" x1="301.1" y1="161.2" x2="297.4" y2="152.5"/>
</g>
<g>
	<text transform="matrix(1.2678 0 0 1 155.2568 138.0973)" class="st10 st11">δ</text>
	<text transform="matrix(1.0869 0 0 1 168.8564 139.2653)" class="st10 st12">α1</text>
</g>
<g>
	<text transform="matrix(1.2674 3.259225e-02 -2.570835e-02 0.9997 53.0818 67.5304)" class="st10 st11">δ</text>
	<text transform="matrix(1.0865 2.794264e-02 -2.570835e-02 0.9997 66.6469 69.0476)" class="st10 st12">β1</text>
</g>
<g>
	<text transform="matrix(1.2678 0 0 1 254.2296 157.8895)" class="st10 st11">δ</text>
	<text transform="matrix(1.0869 0 0 1 267.8292 159.0575)" class="st10 st12">α2</text>
</g>
<g>
	<text transform="matrix(1.2674 3.259225e-02 -2.570835e-02 0.9997 318.3075 67.5062)" class="st10 st11">δ</text>
	<text transform="matrix(1.0865 2.794264e-02 -2.570835e-02 0.9997 331.8726 69.0234)" class="st10 st12">β2</text>
</g>
</svg>
