<?xml version="1.0" encoding="utf-8"?>
<!-- Generator: Adobe Illustrator 24.0.0, SVG Export Plug-In . SVG Version: 6.00 Build 0)  -->
<svg version="1.1" id="Capa_1" xmlns="http://www.w3.org/2000/svg" xmlns:xlink="http://www.w3.org/1999/xlink" x="0px" y="0px"
	 viewBox="0 0 316.3 241.9" style="enable-background:new 0 0 316.3 241.9;" xml:space="preserve">
<style type="text/css">
	.st0{fill:#FFFFFF;stroke:#000000;stroke-width:0.75;stroke-linejoin:round;}
	.st1{fill:none;stroke:#000000;stroke-width:1.5;stroke-linejoin:round;}
	.st2{fill-rule:evenodd;clip-rule:evenodd;fill:#FFFFFF;}
	.st3{fill:none;stroke:#000000;stroke-width:0.75;stroke-linecap:round;stroke-linejoin:round;}
	.st4{fill:none;stroke:#000000;stroke-width:0.75;stroke-linecap:round;stroke-linejoin:round;stroke-dasharray:0,1.5;}
	.st5{font-family:'TimesNewRomanPS-BoldMT';}
	.st6{font-size:17.6393px;}
	.st7{font-size:26.3273px;}
	.st8{fill:none;stroke:#E91300;stroke-miterlimit:10;}
	.st9{font-family:'TimesNewRomanPSMT';}
	.st10{font-size:22.6049px;}
	.st11{font-size:12.749px;}
</style>
<title>camino3</title>
<g>
	<polyline class="st0" points="19.4,55.7 149.8,36.1 19.4,212.2 	"/>
	<line class="st1" x1="19.4" y1="55.8" x2="19.5" y2="212.2"/>
</g>
<polygon class="st2" points="313,199.7 181.5,191.6 180.8,34.5 "/>
<polygon class="st3" points="313,199.7 181.5,191.6 180.8,34.5 "/>
<line class="st4" x1="19.4" y1="55.8" x2="71.5" y2="114.3"/>
<line class="st4" x1="181.4" y1="191.5" x2="228.2" y2="128.7"/>
<text transform="matrix(1 0 0 1 79.3506 24.1818)" class="st5 st6">   </text>
<text transform="matrix(1 0 0 1 92.6895 24.1818)" class="st5 st6"> </text>
<text transform="matrix(1 0 0 1 110.0439 24.1818)" class="st5 st6">  </text>
<text transform="matrix(0.9962 -8.715452e-02 8.715452e-02 0.9962 169.1432 25.6581)" class="st5 st7">A</text>
<text transform="matrix(1 0 0 1 8.1328 236.1434)" class="st5 st7">D   </text>
<text transform="matrix(1 0 0 1 1.6855 53.4054)" class="st5 st7">A</text>
<text transform="matrix(1 0 0 1 79.3506 54.4581)" class="st5 st6">   </text>
<text transform="matrix(1 0 0 1 92.6895 54.4581)" class="st5 st6"> </text>
<text transform="matrix(1 0 0 1 110.0439 54.4581)" class="st5 st6">  </text>
<text transform="matrix(1 0 0 1 22.3174 196.4581)" class="st5 st6">7</text>
<text transform="matrix(-0.9962 8.715452e-02 -8.715452e-02 -0.9962 317.2504 180.9333)" class="st5 st6">   </text>
<text transform="matrix(0.9962 -8.715452e-02 8.715452e-02 0.9962 182.8307 59.7596)" class="st5 st6">8</text>
<text transform="matrix(-0.9962 8.715452e-02 -8.715452e-02 -0.9962 239.8129 187.7106)" class="st5 st6">   </text>
<text transform="matrix(-0.9962 8.715452e-02 -8.715452e-02 -0.9962 226.5238 188.8717)" class="st5 st6"> </text>
<text transform="matrix(-0.9962 8.715452e-02 -8.715452e-02 -0.9962 222.307 189.2409)" class="st5 st6">  </text>
<text transform="matrix(-0.9962 8.715452e-02 -8.715452e-02 -0.9962 213.4555 190.0133)" class="st5 st6"> </text>
<text transform="matrix(-0.9962 8.715452e-02 -8.715452e-02 -0.9962 209.2601 190.3815)" class="st5 st6">  </text>
<text transform="matrix(-0.9962 8.715452e-02 -8.715452e-02 -0.9962 200.4066 191.1559)" class="st5 st6"> </text>
<text transform="matrix(-0.9962 8.715452e-02 -8.715452e-02 -0.9962 196.1898 191.5251)" class="st5 st6">  </text>
<text transform="matrix(1 0 0 1 31.7998 67.7355)" class="st5 st6">1</text>
<text transform="matrix(1 0 0 1 20.6514 80.9943)" class="st5 st6">8</text>
<text transform="matrix(1 0 0 1 79.3506 84.7355)" class="st5 st6">   </text>
<text transform="matrix(-0.9962 8.715452e-02 -8.715452e-02 -0.9962 314.6117 150.7741)" class="st5 st6">   </text>
<text transform="matrix(-0.9962 8.715452e-02 -8.715452e-02 -0.9962 237.1742 157.5465)" class="st5 st6">   </text>
<text transform="matrix(-0.9962 8.715452e-02 -8.715452e-02 -0.9962 223.8851 158.7116)" class="st5 st6"> </text>
<text transform="matrix(-0.9962 8.715452e-02 -8.715452e-02 -0.9962 219.6684 159.0807)" class="st5 st6">  </text>
<text transform="matrix(0.9962 -8.715452e-02 8.715452e-02 0.9962 183.2194 169.8846)" class="st5 st6">7</text>
<text transform="matrix(1 0 0 1 45.6514 137.9581)" class="st5 st7">T</text>
<text transform="matrix(1 0 0 1 63.291 139.0118)" class="st5 st6">5</text>
<text transform="matrix(-0.9962 8.715452e-02 -8.715452e-02 -0.9962 311.973 120.611)" class="st5 st6">   </text>
<text transform="matrix(-0.9962 8.715452e-02 -8.715452e-02 -0.9962 298.6801 121.776)" class="st5 st6"> </text>
<text transform="matrix(-0.9962 8.715452e-02 -8.715452e-02 -0.9962 281.3949 123.2868)" class="st5 st6">  </text>
<text transform="matrix(-0.9962 8.715452e-02 -8.715452e-02 -0.9962 272.5433 124.0631)" class="st5 st6"> </text>
<text transform="matrix(-0.9962 8.715452e-02 -8.715452e-02 -0.9962 268.3246 124.4323)" class="st5 st6">  </text>
<text transform="matrix(0.9962 -8.715452e-02 8.715452e-02 0.9962 200.8132 118.201)" class="st5 st7">T</text>
<text transform="matrix(0.9962 -8.715452e-02 8.715452e-02 0.9962 218.2194 117.7362)" class="st5 st6">6</text>
<text transform="matrix(-0.9962 8.715452e-02 -8.715452e-02 -0.9962 219.891 128.6667)" class="st5 st6"> </text>
<text transform="matrix(-0.9962 8.715452e-02 -8.715452e-02 -0.9962 215.6762 129.0378)" class="st5 st6">  </text>
<text transform="matrix(1 0 0 1 1.6855 145.2882)" class="st5 st6">  </text>
<text transform="matrix(1 0 0 1 1.6855 205.8849)" class="st5 st6">   </text>
<text transform="matrix(1 0 0 1 126.3242 52.1437)" class="st5 st6">2</text>
<text transform="matrix(-0.9962 8.715452e-02 -8.715452e-02 -0.9962 226.6156 36.862)" class="st5 st6">   </text>
<text transform="matrix(-0.9962 8.715452e-02 -8.715452e-02 -0.9962 213.3266 38.0241)" class="st5 st6"> </text>
<text transform="matrix(-0.9962 8.715452e-02 -8.715452e-02 -0.9962 209.1098 38.3922)" class="st5 st6">  </text>
<text transform="matrix(0.9962 -8.715452e-02 8.715452e-02 0.9962 288.6647 193.9901)" class="st5 st6">5</text>
<text transform="matrix(1 0 0 1 312.3916 205.8849)" class="st5 st6">   </text>
<text transform="matrix(1 0 0 1 325.7305 205.8849)" class="st5 st6"> </text>
<text transform="matrix(1 0 0 1 329.9648 205.8849)" class="st5 st6">  </text>
<text transform="matrix(1 0 0 1 338.8506 205.8849)" class="st5 st6"> </text>
<text transform="matrix(1 0 0 1 343.0625 205.8849)" class="st5 st6">  </text>
<text transform="matrix(1 0 0 1 351.9482 205.8849)" class="st5 st6"> </text>
<text transform="matrix(1 0 0 1 356.1826 205.8849)" class="st5 st6">  </text>
<text transform="matrix(1 0 0 1 1.6855 235.1085)" class="st5 st7">  </text>
<text transform="matrix(1 0 0 1 124.8486 26.1085)" class="st5 st7">B</text>
<text transform="matrix(-0.9962 8.715452e-02 -8.715452e-02 -0.9962 223.9769 6.696)" class="st5 st6">   </text>
<text transform="matrix(-0.9962 8.715452e-02 -8.715452e-02 -0.9962 210.6879 7.861)" class="st5 st6"> </text>
<text transform="matrix(-0.9962 8.715452e-02 -8.715452e-02 -0.9962 206.473 8.2311)" class="st5 st6">  </text>
<text transform="matrix(0.9962 -8.715452e-02 8.715452e-02 0.9962 290.0593 225.8045)" class="st5 st7">C</text>
<text transform="matrix(0.9962 -8.715452e-02 8.715452e-02 0.9962 158.5026 211.203)" class="st5 st7">D</text>
<text transform="matrix(0.9962 -8.715452e-02 8.715452e-02 0.9962 197.5515 188.1551)" class="st5 st6">6</text>
<g>
	<path class="st8" d="M20.6,134.3C24.7,118.7,34.2,77,52,86.9"/>
	<path class="st8" d="M52,86.9c13.4,7.5,28.3,4.8,40.7-42.2"/>
	<line class="st8" x1="29.8" y1="126.9" x2="20.6" y2="134.3"/>
	<line class="st8" x1="20.7" y1="133.2" x2="19.9" y2="121.4"/>
</g>
<g>
	<path class="st8" d="M241.8,195.6c0-11.8,1.8-42.9-23.9-42.9"/>
	<path class="st8" d="M217.9,152.7c-19.3,0-37.1-7.3-37.1-42.9"/>
	<line class="st8" x1="232.7" y1="187.4" x2="241.8" y2="195.6"/>
	<line class="st8" x1="242" y1="194.9" x2="246.9" y2="187.3"/>
</g>
<g>
	<text transform="matrix(1.2678 0 0 1 21.9984 172.1478)" class="st9 st10">δ</text>
	<text transform="matrix(1.0869 0 0 1 35.598 173.3158)" class="st9 st11">α1</text>
</g>
<g>
	<text transform="matrix(1.2674 3.259225e-02 -2.570835e-02 0.9997 100.8234 62.581)" class="st9 st10">δ</text>
	<text transform="matrix(1.0865 2.794264e-02 -2.570835e-02 0.9997 114.3885 64.0982)" class="st9 st11">β1</text>
</g>
<g>
	<text transform="matrix(1.2678 0 0 1 257.9712 184.9401)" class="st9 st10">δ</text>
	<text transform="matrix(1.0869 0 0 1 271.5708 186.108)" class="st9 st11">α2</text>
</g>
<g>
	<text transform="matrix(1.2674 3.259225e-02 -2.570835e-02 0.9997 182.0491 82.5568)" class="st9 st10">δ</text>
	<text transform="matrix(1.0865 2.794264e-02 -2.570835e-02 0.9997 195.6142 84.074)" class="st9 st11">β2</text>
</g>
</svg>
