<?xml version="1.0" encoding="utf-8"?>
<!-- Generator: Adobe Illustrator 24.0.0, SVG Export Plug-In . SVG Version: 6.00 Build 0)  -->
<svg version="1.1" id="Capa_1" xmlns="http://www.w3.org/2000/svg" xmlns:xlink="http://www.w3.org/1999/xlink" x="0px" y="0px"
	 viewBox="0 0 284 215.9" style="enable-background:new 0 0 284 215.9;" xml:space="preserve">
<style type="text/css">
	.st0{font-family:'TimesNewRomanPS-BoldMT';}
	.st1{font-size:16.5561px;}
	.st2{font-size:11.0926px;}
	.st3{fill:none;stroke:#000000;stroke-width:0.75;stroke-linejoin:round;}
	.st4{fill:none;stroke:#000000;stroke-width:1.5;stroke-linejoin:round;}
</style>
<title>cuadrilatero</title>
<text transform="matrix(1 0 0 1 55.252 14.09)" class="st0 st1">A</text>
<text transform="matrix(1 0 0 1 83.0664 31.8326)" class="st0 st2">1</text>
<text transform="matrix(1 0 0 1 88.668 31.8326)" class="st0 st2"> </text>
<text transform="matrix(1 0 0 1 91.3306 31.8326)" class="st0 st2">  </text>
<text transform="matrix(1 0 0 1 61.437 41.6656)" class="st0 st2">8</text>
<text transform="matrix(1 0 0 1 250.6826 38.8326)" class="st0 st2">   </text>
<text transform="matrix(1 0 0 1 11.9404 184.1705)" class="st0 st1">D</text>
<text transform="matrix(1 0 0 1 201.8008 57.8722)" class="st0 st2">   </text>
<text transform="matrix(1 0 0 1 210.1895 57.8722)" class="st0 st2"> </text>
<text transform="matrix(1 0 0 1 212.8516 57.8722)" class="st0 st2">  </text>
<text transform="matrix(1 0 0 1 218.4395 57.8722)" class="st0 st2"> </text>
<text transform="matrix(1 0 0 1 221.1025 57.8722)" class="st0 st2">  </text>
<text transform="matrix(1 0 0 1 226.6895 57.8722)" class="st0 st2"> </text>
<text transform="matrix(1 0 0 1 229.3389 57.8722)" class="st0 st2">  </text>
<text transform="matrix(1 0 0 1 40.583 161.7462)" class="st0 st2">7</text>
<text transform="matrix(1 0 0 1 201.8008 76.9117)" class="st0 st2">   </text>
<text transform="matrix(1 0 0 1 210.1895 76.9117)" class="st0 st2"> </text>
<text transform="matrix(1 0 0 1 212.8516 76.9117)" class="st0 st2">  </text>
<text transform="matrix(1 0 0 1 218.4395 76.9117)" class="st0 st2"> </text>
<text transform="matrix(1 0 0 1 221.1025 76.9117)" class="st0 st2">  </text>
<text transform="matrix(1 0 0 1 226.6895 76.9117)" class="st0 st2"> </text>
<text transform="matrix(1 0 0 1 229.3389 76.9117)" class="st0 st2">  </text>
<text transform="matrix(1 0 0 1 234.9404 76.9117)" class="st0 st2"> </text>
<text transform="matrix(1 0 0 1 237.6035 76.9117)" class="st0 st2">  </text>
<text transform="matrix(1 0 0 1 243.1914 76.9117)" class="st0 st2"> </text>
<text transform="matrix(1 0 0 1 245.8535 76.9117)" class="st0 st2">  </text>
<text transform="matrix(1 0 0 1 63.1396 171.7863)" class="st0 st2">6</text>
<text transform="matrix(1 0 0 1 6.3701 172.1095)" class="st0 st2">   </text>
<text transform="matrix(1 0 0 1 14.7583 172.1095)" class="st0 st2"> </text>
<text transform="matrix(1 0 0 1 25.6719 172.1095)" class="st0 st2">  </text>
<text transform="matrix(1 0 0 1 238.5234 46.9835)" class="st0 st2">2</text>
<text transform="matrix(1 0 0 1 260.0796 62.1095)" class="st0 st2">3</text>
<text transform="matrix(1 0 0 1 201.8008 172.1095)" class="st0 st2">   </text>
<text transform="matrix(1 0 0 1 210.1895 172.1095)" class="st0 st2"> </text>
<text transform="matrix(1 0 0 1 212.8516 172.1095)" class="st0 st2">  </text>
<text transform="matrix(1 0 0 1 218.4395 172.1095)" class="st0 st2"> </text>
<text transform="matrix(1 0 0 1 221.1025 172.1095)" class="st0 st2">  </text>
<text transform="matrix(1 0 0 1 226.6895 172.1095)" class="st0 st2"> </text>
<text transform="matrix(1 0 0 1 229.3389 172.1095)" class="st0 st2">  </text>
<text transform="matrix(1 0 0 1 218.583 179.1095)" class="st0 st2">5</text>
<text transform="matrix(1 0 0 1 268.0405 32.4864)" class="st0 st1">B</text>
<text transform="matrix(1 0 0 1 201.8008 191.1486)" class="st0 st2">   </text>
<text transform="matrix(1 0 0 1 210.1895 191.1486)" class="st0 st2"> </text>
<text transform="matrix(1 0 0 1 212.8516 191.1486)" class="st0 st2">  </text>
<text transform="matrix(1 0 0 1 238.0273 162.0226)" class="st0 st2">4</text>
<text transform="matrix(1 0 0 1 250.6826 209.5538)" class="st0 st1">C</text>
<polyline class="st3" points="59.5,18.5 278,38.3 248.2,187.3 29.7,177.4 278,38.3 "/>
<line class="st3" x1="59.5" y1="18.5" x2="248.2" y2="187.3"/>
<line class="st4" x1="59.5" y1="18.5" x2="29.7" y2="177.4"/>
</svg>
