<svg xmlns="http://www.w3.org/2000/svg" viewBox="0 0 453.84 117.92"><defs><style>.cls-1{font-size:12px;}.cls-1,.cls-18,.cls-45{font-family:TimesNewRomanPSMT, Times New Roman;}.cls-2{letter-spacing:0em;}.cls-3{letter-spacing:0em;}.cls-4{letter-spacing:0em;}.cls-5{letter-spacing:0em;}.cls-6{letter-spacing:1.64em;}.cls-7{letter-spacing:0em;}.cls-8{letter-spacing:0em;}.cls-9{letter-spacing:0em;}.cls-10{letter-spacing:1.17em;}.cls-11{letter-spacing:0em;}.cls-12{letter-spacing:0em;}.cls-13{letter-spacing:0em;}.cls-14{letter-spacing:1.53em;}.cls-15{letter-spacing:-0.01em;}.cls-16{letter-spacing:0em;}.cls-17{letter-spacing:2.39em;}.cls-18{font-size:11.04px;}.cls-19{letter-spacing:-0.01em;}.cls-20{letter-spacing:0em;}.cls-21{letter-spacing:0em;}.cls-22{letter-spacing:0em;}.cls-23{letter-spacing:-0.02em;}.cls-24{letter-spacing:0.01em;}.cls-25{letter-spacing:3.97em;}.cls-26{letter-spacing:-0.01em;}.cls-27{letter-spacing:0em;}.cls-28{letter-spacing:1.44em;}.cls-29{letter-spacing:-0.01em;}.cls-30{letter-spacing:0em;}.cls-31{letter-spacing:0em;}.cls-32{letter-spacing:1.8em;}.cls-33{letter-spacing:2.07em;}.cls-34{letter-spacing:0em;}.cls-35{letter-spacing:0em;}.cls-36{letter-spacing:1.91em;}.cls-37{letter-spacing:0em;}.cls-38{letter-spacing:3.14em;}.cls-39{letter-spacing:-0.01em;}.cls-40{letter-spacing:1.45em;}.cls-41{letter-spacing:0em;}.cls-42{letter-spacing:1.8em;}.cls-43{letter-spacing:4.56em;}.cls-44{letter-spacing:2.03em;}.cls-45{font-size:12.01px;}.cls-46{letter-spacing:0em;}.cls-47{letter-spacing:-0.01em;}</style></defs><title>Recurso 2</title><g id="Capa_2" data-name="Capa 2"><g id="Capa_1-2" data-name="Capa 1"><text class="cls-1" transform="translate(149.88 11.64)"><tspan class="cls-2">C</tspan><tspan class="cls-3" x="7.98" y="0">oo</tspan><tspan class="cls-4" x="20" y="0">r</tspan><tspan class="cls-5" x="23.96" y="0">d</tspan><tspan class="cls-4" x="29.98" y="0">e</tspan><tspan class="cls-5" x="35.27" y="0">nadas</tspan><tspan x="62.65" y="0"> </tspan><tspan class="cls-3" x="65.65" y="0">Elipsoidal</tspan><tspan class="cls-4" x="114.43" y="0">e</tspan><tspan x="119.72" y="0">s</tspan><tspan class="cls-6" x="124.39" y="0"> </tspan></text><rect x="6.84" width="0.48" height="0.48"/><rect x="6.84" width="0.48" height="0.48"/><rect x="7.32" width="127.2" height="0.48"/><rect x="134.52" width="0.48" height="0.48"/><rect x="135" width="162.48" height="0.48"/><rect x="297.48" width="0.48" height="0.48"/><rect x="297.96" width="155.4" height="0.48"/><rect x="453.36" width="0.48" height="0.48"/><rect x="453.36" width="0.48" height="0.48"/><rect x="6.84" y="0.48" width="0.48" height="14.16"/><rect x="134.52" y="0.48" width="0.48" height="14.16"/><rect x="297.48" y="0.48" width="0.48" height="14.16"/><rect x="453.36" y="0.48" width="0.48" height="14.16"/><text class="cls-1" transform="translate(52.8 18.84)"><tspan class="cls-5">O</tspan><tspan class="cls-4" x="8.68" y="0">r</tspan><tspan class="cls-3" x="12.64" y="0">ig</tspan><tspan class="cls-4" x="22" y="0">e</tspan><tspan class="cls-7" x="27.29" y="0">n</tspan><tspan x="33.32" y="0"> </tspan></text><text class="cls-1" transform="translate(144.48 26.28)"><tspan class="cls-7">L</tspan><tspan x="7.37" y="0">a</tspan><tspan class="cls-2" x="12.69" y="0">t</tspan><tspan class="cls-8" x="16" y="0">i</tspan><tspan class="cls-2" x="19.36" y="0">t</tspan><tspan class="cls-9" x="22.67" y="0">ud</tspan><tspan x="34.74" y="0"> </tspan><tspan class="cls-2" x="37.74" y="0">(N)</tspan><tspan class="cls-10" x="54.33" y="0"> </tspan><tspan class="cls-7" x="71.37" y="0">L</tspan><tspan x="78.73" y="0">o</tspan><tspan class="cls-11" x="84.73" y="0">n</tspan><tspan x="90.77" y="0">g</tspan><tspan class="cls-12" x="96.77" y="0">i</tspan><tspan class="cls-4" x="100.13" y="0">t</tspan><tspan class="cls-7" x="103.43" y="0">ud</tspan><tspan x="115.5" y="0"> </tspan><tspan class="cls-13" x="118.5" y="0">(W)</tspan><tspan class="cls-14" x="137.74" y="0"> </tspan><tspan class="cls-13" x="159.09" y="0">Norte</tspan><tspan x="186.3" y="0"> </tspan><tspan class="cls-13" x="189.3" y="0">[</tspan><tspan class="cls-15" x="193.27" y="0">m</tspan><tspan class="cls-16" x="202.44" y="0">]</tspan><tspan class="cls-17" x="206.42" y="0"> </tspan><tspan class="cls-7" x="238.09" y="0">E</tspan><tspan x="245.45" y="0">s</tspan><tspan class="cls-13" x="250.12" y="0">te</tspan><tspan x="258.73" y="0"> </tspan><tspan class="cls-16" x="261.73" y="0">[</tspan><tspan class="cls-15" x="265.71" y="0">m</tspan><tspan class="cls-16" x="274.88" y="0">]</tspan><tspan x="278.86" y="0"> </tspan></text><rect x="6.84" y="14.64" width="0.48" height="0.48"/><rect x="134.52" y="14.64" width="0.48" height="0.48"/><rect x="135" y="14.64" width="77.4" height="0.48"/><rect x="212.4" y="14.64" width="0.48" height="0.48"/><rect x="212.88" y="14.64" width="84.6" height="0.48"/><rect x="297.48" y="14.64" width="0.48" height="0.48"/><rect x="297.96" y="14.64" width="77.4" height="0.48"/><rect x="375.36" y="14.64" width="0.48" height="0.48"/><rect x="375.84" y="14.64" width="77.52" height="0.48"/><rect x="453.36" y="14.64" width="0.48" height="0.48"/><rect x="6.84" y="15.12" width="0.48" height="14.28"/><rect x="134.52" y="15.12" width="0.48" height="14.28"/><rect x="212.4" y="15.12" width="0.48" height="14.28"/><rect x="297.48" y="15.12" width="0.48" height="14.28"/><rect x="375.36" y="15.12" width="0.48" height="14.28"/><rect x="453.36" y="15.12" width="0.48" height="14.28"/><text class="cls-18" transform="translate(10.56 40.56)">Bo<tspan class="cls-19" x="12.88" y="0">g</tspan><tspan x="18.29" y="0">o</tspan><tspan class="cls-20" x="23.81" y="0">t</tspan><tspan class="cls-21" x="26.92" y="0">á</tspan><tspan class="cls-22" x="31.84" y="0"> </tspan><tspan class="cls-23" x="34.6" y="0">-</tspan><tspan x="38.08" y="0" xml:space="preserve"> BOGO</tspan><tspan class="cls-24" x="72.13" y="0">T</tspan><tspan x="78.96" y="0">Á</tspan><tspan class="cls-25" x="86.93" y="0"> </tspan><tspan x="133.49" y="0">4</tspan><tspan class="cls-26" x="139.01" y="0">°</tspan><tspan class="cls-22" x="143.33" y="0" xml:space="preserve"> 35</tspan><tspan class="cls-27" x="157.13" y="0">’</tspan><tspan x="160.84" y="0" xml:space="preserve"> 56,57”</tspan><tspan class="cls-28" x="193.34" y="0"> </tspan><tspan class="cls-22" x="212.06" y="0">74</tspan><tspan class="cls-29" x="223.1" y="0">°</tspan><tspan x="227.42" y="0" xml:space="preserve"> 04</tspan><tspan class="cls-30" x="241.22" y="0">’</tspan><tspan class="cls-31" x="244.93" y="0" xml:space="preserve"> 51,30”</tspan><tspan class="cls-32" x="277.43" y="0"> </tspan><tspan x="300.11" y="0">1 000 000,0</tspan><tspan class="cls-33" x="352.55" y="0"> </tspan><tspan class="cls-31" x="378.1" y="0">1 000 000,0 </tspan></text><rect x="6.84" y="29.4" width="0.48" height="0.48"/><rect x="7.32" y="29.4" width="127.2" height="0.48"/><rect x="134.52" y="29.4" width="0.48" height="0.48"/><rect x="135" y="29.4" width="77.4" height="0.48"/><rect x="212.4" y="29.4" width="0.48" height="0.48"/><rect x="212.88" y="29.4" width="84.6" height="0.48"/><rect x="297.48" y="29.4" width="0.48" height="0.48"/><rect x="297.96" y="29.4" width="77.4" height="0.48"/><rect x="375.36" y="29.4" width="0.48" height="0.48"/><rect x="375.84" y="29.4" width="77.52" height="0.48"/><rect x="453.36" y="29.4" width="0.48" height="0.48"/><rect x="6.84" y="29.88" width="0.48" height="14.16"/><rect x="134.52" y="29.88" width="0.48" height="14.16"/><rect x="212.4" y="29.88" width="0.48" height="14.16"/><rect x="297.48" y="29.88" width="0.48" height="14.16"/><rect x="375.36" y="29.88" width="0.48" height="14.16"/><rect x="453.36" y="29.88" width="0.48" height="14.16"/><text class="cls-18" transform="translate(10.56 55.2)">Es<tspan class="cls-34" x="11.04" y="0">t</tspan><tspan class="cls-35" x="14.15" y="0">e</tspan><tspan class="cls-22" x="19.06" y="0" xml:space="preserve"> Cen</tspan><tspan class="cls-20" x="39.61" y="0">t</tspan><tspan class="cls-27" x="42.72" y="0">r</tspan><tspan class="cls-35" x="46.43" y="0">a</tspan><tspan class="cls-34" x="51.34" y="0">l</tspan><tspan x="54.45" y="0"> </tspan><tspan class="cls-23" x="57.21" y="0">-</tspan><tspan class="cls-22" x="60.7" y="0" xml:space="preserve"> BOGO</tspan><tspan class="cls-24" x="94.74" y="0">T</tspan><tspan x="101.57" y="0">Á</tspan><tspan class="cls-36" x="109.54" y="0"> </tspan><tspan x="133.41" y="0">4</tspan><tspan class="cls-26" x="138.93" y="0">°</tspan><tspan class="cls-22" x="143.26" y="0" xml:space="preserve"> 35</tspan><tspan class="cls-37" x="157.06" y="0">’</tspan><tspan x="160.77" y="0" xml:space="preserve"> 56,57”</tspan><tspan class="cls-28" x="193.27" y="0"> </tspan><tspan class="cls-22" x="211.98" y="0">71</tspan><tspan class="cls-29" x="223.02" y="0">°</tspan><tspan x="227.35" y="0" xml:space="preserve"> 04</tspan><tspan class="cls-30" x="241.15" y="0">’</tspan><tspan class="cls-31" x="244.86" y="0" xml:space="preserve"> 51,30”</tspan><tspan class="cls-32" x="277.36" y="0"> </tspan><tspan x="300.03" y="0">1 000 000,0</tspan><tspan class="cls-33" x="352.47" y="0"> </tspan><tspan class="cls-31" x="378.03" y="0">1 000 000,0 </tspan></text><rect x="6.84" y="44.04" width="0.48" height="0.48"/><rect x="7.32" y="44.04" width="127.2" height="0.48"/><rect x="134.52" y="44.04" width="0.48" height="0.48"/><rect x="135" y="44.04" width="77.4" height="0.48"/><rect x="212.4" y="44.04" width="0.48" height="0.48"/><rect x="212.88" y="44.04" width="84.6" height="0.48"/><rect x="297.48" y="44.04" width="0.48" height="0.48"/><rect x="297.96" y="44.04" width="77.4" height="0.48"/><rect x="375.36" y="44.04" width="0.48" height="0.48"/><rect x="375.84" y="44.04" width="77.52" height="0.48"/><rect x="453.36" y="44.04" width="0.48" height="0.48"/><rect x="6.84" y="44.52" width="0.48" height="14.28"/><rect x="134.52" y="44.52" width="0.48" height="14.28"/><rect x="212.4" y="44.52" width="0.48" height="14.28"/><rect x="297.48" y="44.52" width="0.48" height="14.28"/><rect x="375.36" y="44.52" width="0.48" height="14.28"/><rect x="453.36" y="44.52" width="0.48" height="14.28"/><text class="cls-18" transform="translate(10.56 69.96)">Es<tspan class="cls-34" x="11.04" y="0">t</tspan><tspan class="cls-35" x="14.15" y="0">e</tspan><tspan class="cls-22" x="19.06" y="0" xml:space="preserve"> Es</tspan><tspan class="cls-20" x="32.86" y="0">t</tspan><tspan class="cls-35" x="35.97" y="0">e</tspan><tspan x="40.89" y="0"> </tspan><tspan class="cls-23" x="43.65" y="0">-</tspan><tspan x="47.13" y="0" xml:space="preserve"> BOGO</tspan><tspan class="cls-24" x="81.18" y="0">T</tspan><tspan x="88.01" y="0">Á</tspan><tspan class="cls-38" x="95.98" y="0"> </tspan><tspan x="133.42" y="0">4</tspan><tspan class="cls-39" x="138.94" y="0">°</tspan><tspan class="cls-22" x="143.26" y="0" xml:space="preserve"> 35</tspan><tspan class="cls-27" x="157.06" y="0">’</tspan><tspan x="160.77" y="0" xml:space="preserve"> 56,57”</tspan><tspan class="cls-40" x="193.27" y="0"> </tspan><tspan class="cls-41" x="211.99" y="0">68</tspan><tspan class="cls-39" x="223.03" y="0">°</tspan><tspan x="227.35" y="0" xml:space="preserve"> 04</tspan><tspan class="cls-37" x="241.15" y="0">’</tspan><tspan x="244.86" y="0" xml:space="preserve"> 51,30”</tspan><tspan class="cls-42" x="277.36" y="0"> </tspan><tspan class="cls-31" x="300.04" y="0">1 000 000,0</tspan><tspan class="cls-33" x="352.48" y="0"> </tspan><tspan x="378.04" y="0">1 000 000,0 </tspan></text><rect x="6.84" y="58.8" width="0.48" height="0.48"/><rect x="7.32" y="58.8" width="127.2" height="0.48"/><rect x="134.52" y="58.8" width="0.48" height="0.48"/><rect x="135" y="58.8" width="77.4" height="0.48"/><rect x="212.4" y="58.8" width="0.48" height="0.48"/><rect x="212.88" y="58.8" width="84.6" height="0.48"/><rect x="297.48" y="58.8" width="0.48" height="0.48"/><rect x="297.96" y="58.8" width="77.4" height="0.48"/><rect x="375.36" y="58.8" width="0.48" height="0.48"/><rect x="375.84" y="58.8" width="77.52" height="0.48"/><rect x="453.36" y="58.8" width="0.48" height="0.48"/><rect x="6.84" y="59.28" width="0.48" height="14.16"/><rect x="134.52" y="59.28" width="0.48" height="14.16"/><rect x="212.4" y="59.28" width="0.48" height="14.16"/><rect x="297.48" y="59.28" width="0.48" height="14.16"/><rect x="375.36" y="59.28" width="0.48" height="14.16"/><rect x="453.36" y="59.28" width="0.48" height="14.16"/><text class="cls-18" transform="translate(10.56 84.6)">Oes<tspan class="cls-20" x="17.17" y="0">t</tspan><tspan x="20.28" y="0">e </tspan><tspan class="cls-23" x="27.94" y="0">-</tspan><tspan class="cls-22" x="31.43" y="0" xml:space="preserve"> BOGO</tspan><tspan class="cls-24" x="65.47" y="0">T</tspan><tspan x="72.3" y="0">Á</tspan><tspan class="cls-43" x="80.28" y="0"> </tspan><tspan x="133.43" y="0">4</tspan><tspan class="cls-26" x="138.95" y="0">°</tspan><tspan class="cls-22" x="143.28" y="0" xml:space="preserve"> 35</tspan><tspan class="cls-27" x="157.08" y="0">’</tspan><tspan x="160.79" y="0" xml:space="preserve"> 56,57”</tspan><tspan class="cls-40" x="193.29" y="0"> </tspan><tspan class="cls-41" x="212" y="0">77</tspan><tspan class="cls-39" x="223.04" y="0">°</tspan><tspan x="227.37" y="0" xml:space="preserve"> 04</tspan><tspan class="cls-37" x="241.17" y="0">’</tspan><tspan x="244.88" y="0" xml:space="preserve"> 51,30”</tspan><tspan class="cls-42" x="277.38" y="0"> </tspan><tspan class="cls-31" x="300.05" y="0">1 000 000,0</tspan><tspan class="cls-33" x="352.49" y="0"> </tspan><tspan x="378.05" y="0">1 000 000,0 </tspan></text><rect x="6.84" y="73.44" width="0.48" height="0.48"/><rect x="7.32" y="73.44" width="127.2" height="0.48"/><rect x="134.52" y="73.44" width="0.48" height="0.48"/><rect x="135" y="73.44" width="77.4" height="0.48"/><rect x="212.4" y="73.44" width="0.48" height="0.48"/><rect x="212.88" y="73.44" width="84.6" height="0.48"/><rect x="297.48" y="73.44" width="0.48" height="0.48"/><rect x="297.96" y="73.44" width="77.4" height="0.48"/><rect x="375.36" y="73.44" width="0.48" height="0.48"/><rect x="375.84" y="73.44" width="77.52" height="0.48"/><rect x="453.36" y="73.44" width="0.48" height="0.48"/><rect x="6.84" y="73.92" width="0.48" height="14.28"/><rect x="134.52" y="73.92" width="0.48" height="14.28"/><rect x="212.4" y="73.92" width="0.48" height="14.28"/><rect x="297.48" y="73.92" width="0.48" height="14.28"/><rect x="375.36" y="73.92" width="0.48" height="14.28"/><rect x="453.36" y="73.92" width="0.48" height="14.28"/><text class="cls-18" transform="translate(10.56 99.36)">Oes<tspan class="cls-20" x="17.17" y="0">t</tspan><tspan x="20.28" y="0">e Oes</tspan><tspan class="cls-34" x="45.11" y="0">t</tspan><tspan x="48.22" y="0">e </tspan><tspan class="cls-23" x="55.88" y="0">-</tspan><tspan x="59.37" y="0" xml:space="preserve"> BOGO</tspan><tspan class="cls-24" x="93.41" y="0">T</tspan><tspan x="100.24" y="0">Á</tspan><tspan class="cls-44" x="108.22" y="0"> </tspan><tspan x="133.41" y="0">4</tspan><tspan class="cls-26" x="138.93" y="0">°</tspan><tspan x="143.26" y="0" xml:space="preserve"> 35</tspan><tspan class="cls-27" x="157.06" y="0">’</tspan><tspan class="cls-22" x="160.77" y="0" xml:space="preserve"> 56,57”</tspan><tspan class="cls-28" x="193.27" y="0"> </tspan><tspan class="cls-22" x="211.98" y="0">80</tspan><tspan class="cls-29" x="223.02" y="0">°</tspan><tspan x="227.35" y="0" xml:space="preserve"> 04</tspan><tspan class="cls-37" x="241.15" y="0">’</tspan><tspan x="244.85" y="0" xml:space="preserve"> 51,30”</tspan><tspan class="cls-42" x="277.35" y="0"> </tspan><tspan x="300.03" y="0">1 000 000,0</tspan><tspan class="cls-33" x="352.47" y="0"> </tspan><tspan class="cls-31" x="378.03" y="0">1 000 000,0 </tspan></text><rect x="6.84" y="88.2" width="0.48" height="0.48"/><rect x="7.32" y="88.2" width="127.2" height="0.48"/><rect x="134.52" y="88.2" width="0.48" height="0.48"/><rect x="135" y="88.2" width="77.4" height="0.48"/><rect x="212.4" y="88.2" width="0.48" height="0.48"/><rect x="212.88" y="88.2" width="84.6" height="0.48"/><rect x="297.48" y="88.2" width="0.48" height="0.48"/><rect x="297.96" y="88.2" width="77.4" height="0.48"/><rect x="375.36" y="88.2" width="0.48" height="0.48"/><rect x="375.84" y="88.2" width="77.52" height="0.48"/><rect x="453.36" y="88.2" width="0.48" height="0.48"/><rect x="6.84" y="88.68" width="0.48" height="14.28"/><rect x="6.84" y="102.96" width="0.48" height="0.48"/><rect x="6.84" y="102.96" width="0.48" height="0.48"/><rect x="7.32" y="102.96" width="127.2" height="0.48"/><rect x="134.52" y="88.68" width="0.48" height="14.28"/><rect x="134.52" y="102.96" width="0.48" height="0.48"/><rect x="135" y="102.96" width="77.4" height="0.48"/><rect x="212.4" y="88.68" width="0.48" height="14.28"/><rect x="212.4" y="102.96" width="0.48" height="0.48"/><rect x="212.88" y="102.96" width="84.6" height="0.48"/><rect x="297.48" y="88.68" width="0.48" height="14.28"/><rect x="297.48" y="102.96" width="0.48" height="0.48"/><rect x="297.96" y="102.96" width="77.4" height="0.48"/><rect x="375.36" y="88.68" width="0.48" height="14.28"/><rect x="375.36" y="102.96" width="0.48" height="0.48"/><rect x="375.84" y="102.96" width="77.52" height="0.48"/><rect x="453.36" y="88.68" width="0.48" height="14.28"/><rect x="453.36" y="102.96" width="0.48" height="0.48"/><rect x="453.36" y="102.96" width="0.48" height="0.48"/><text class="cls-45" transform="translate(0 114.24)"> </text><text class="cls-1" transform="translate(305.85 12.03)"><tspan class="cls-2">C</tspan><tspan class="cls-3" x="7.98" y="0">oo</tspan><tspan class="cls-4" x="20" y="0">r</tspan><tspan class="cls-5" x="23.96" y="0">d</tspan><tspan class="cls-4" x="29.98" y="0">e</tspan><tspan class="cls-5" x="35.27" y="0">nadas</tspan><tspan x="62.65" y="0"> </tspan><tspan class="cls-3" x="65.65" y="0">gauss</tspan><tspan class="cls-46" x="92.37" y="0">-</tspan><tspan class="cls-47" x="96.33" y="0">K</tspan><tspan class="cls-4" x="104.92" y="0">r</tspan><tspan class="cls-3" x="108.88" y="0">üg</tspan><tspan class="cls-4" x="120.9" y="0">er</tspan><tspan x="130.15" y="0"> </tspan></text></g></g></svg>